<svg width="85" height="85" fill="none" xmlns="http://www.w3.org/2000/svg"><rect y="0.125" width="85" height="85" rx="42.5" fill="#fff"></rect><g clip-path="url(#burgerAndFries_svg__a)" fill-rule="evenodd" clip-rule="evenodd" fill="#FF8000"><path d="m22.473 46.424 4.063 18.167c.154 1.344.69 1.073 1.38 1.073h7.82c-.307-.24-.383-1.224-.461-1.914l.078-1.695c0-.95.305-2.83.92-3.673-.615-.766-.92-1.763-.92-2.76v-1.916c0-1.148.305-2.145.995-2.99-.153-.23.062-.458-.383-.612-.383-1.227-.612-2.453-.612-3.68h-12.88ZM38.76 18.892c-.327 0-.58.723-.648.626l-1.304 14.41v.155h-8.893c-.612 0-1.073.305-1.302.843l-2.761 6.439L19.1 34.62a.706.706 0 0 0-.607-.36.653.653 0 0 0-.39.128l-.813 1.047c-.568-.05-.643.412-.414.95l5.75 8.046h13.108c.078-.307.23-.612.46-.92a20.235 20.235 0 0 1 8.586-7.436V36l-.537-1.074c-.103-.538-.688-.843-1.083-.843h-1.446l4.446-13.34c.153-.384.68-.767-.46-.92l-1.225-.46a.905.905 0 0 0-.191-.02c-.314 0-.603.16-.73.48l-3.68 11.04.996-11.116c.078-.383-.23-.69-.612-.766l-1.381-.077a.663.663 0 0 0-.117-.012ZM41.176 51.655c-1.993-.324-3.526 1.285-3.526 3.278 0 1.61.997 3.68 2.99 3.68l26.294.076c1.916 0 2.99-1.993 2.99-3.678.075-1.995-1.457-3.604-3.449-3.756h-9.583a2.84 2.84 0 0 0-1.38.612L52.62 55.47c-1.218.632-1.787.85-2.269.85-.747 0-.72-.524-1.662-.85l-3.449-3.603c-.307-.382-.843-.612-1.302-.212h-2.76ZM67.32 49.414H40.18a2.402 2.402 0 0 1-1.822-3.988c3.393-5.673 9.41-8.51 15.42-8.51 6.007 0 12.006 2.837 15.686 8.51 1.15 1.688-.078 3.988-2.146 3.988Zm-19.552-4.907a.963.963 0 0 0-.905-.615c-.337 0-.674.175-.264.537-.823.538 0 1.075-.057 1.305a.939.939 0 0 0 .353.069c.626 0 1.394-.368.873-1.296Zm2.378-3.526a.996.996 0 0 0-.942-.673.975.975 0 0 0-.899.596c.464.537 0 1.149.537 1.379.12.048.967.068.355.068.644 0 1.208-.658.95-1.37Zm2.147 3.526a.964.964 0 0 0-.895-.615c.311 0-.646.175-.793.537-.229.538 0 1.075 1.064 1.305-.484.048-.367.069-.25.069 1.04 0 1.133-.368.874-1.296Zm2.453-3.526a.998.998 0 0 0-.942-.673c-.358 0 .085.193-.899.596-.305.459-.076 1.074.461 1.379a.94.94 0 0 0 .36.068c.66 0 1.873-.658 1.02-1.37Zm2.146 3.526a.965.965 0 0 0-1.763-.078c-.229.538 0 1.075.461 1.305a.921.921 0 0 0 .351.069c.628 0 1.938-.368.951-1.296Zm2.376-3.526c.421-.441-.61-.673-1.009-.673a.979.979 0 0 0-.908.596 1.04 1.04 0 0 0 .537 1.379c.301.048.261.068.385.068.69 0 1.254-.658.995-1.37Zm2.146 3.526a.964.964 0 0 0-.906-.615.949.949 0 0 0-.857.537c-.229.538 0 1.075.537 1.305a.937.937 0 0 0 .352.069c.627 0 1.133-.368.874-1.296ZM38.802 60.684c-.442.153-1.227.998-.92 1.763.383 1.839 1.917 3.144 3.832 3.296H65.86c1.917-.152 3.45-1.457 3.834-3.296.505-.765-.23-1.61-.997-1.763H38.802Z"></path></g><defs><clipPath id="burgerAndFries_svg__a"><path fill="#fff" transform="translate(16 18.125)" d="M0 0h54v48H0z"></path></clipPath></defs></svg>