<svg width="85" height="85" fill="none" xmlns="http://www.w3.org/2000/svg"><rect y="0.125" width="85" height="85" rx="42.5" fill="#fff"></rect><g clip-path="url(#handWithPhone_svg__a)" fill-rule="evenodd" clip-rule="evenodd" fill="#FF8000"><path d="M49.087 40.179V26.613c0-.672-.097-1.21-1.21-1.21h-18c-.67 0-1.21.538-1.21 1.21v30.293c0 .67.54 1.208 1.21 1.208h3.829a61.4 61.4 0 0 0 5.508 7.62H31.96a.429.429 0 0 1-.235.07c-1.34 0-2.71-.695-3.66-1.644a5.475 5.475 0 0 1-1.21-3.427V23.59c.201-3.224 1.948-4.335 5.105-4.335h13.836c3.224 0 4.972 1.045 5.174 4.335v17.867a3.654 3.654 0 0 0-1.883-1.278ZM41.39 22.355c-.03 0-.061.03-.094.12H36.76c-.268-.09-.299-.12-.33-.12-.476 0-.476.238 0 .238.032 0 .063-.003.33-.012h4.535a.354.354 0 0 0 .096.012c.476 0 .476-.238 0-.238Z"></path><path d="M42.739 30.744c-1.36 0-2.721 1.14-2.721 2.72v14.709c.069 1.278-.066 2.622-.334 3.897l-.07-.067c-.694-1.612-2.281-3.091-3.558-4.568-.561-.622-1.351-1.014-2.161-1.014-.064 0-.126.003-.19.007-.07-.007.495-.01.095-.01-1.014 0-1.62.328-2.111.884.38.133-.268.269-.401.468-.135.403-.27.807-.27 1.21v.067c.068.202.068.47.135.739.335 1.075.738 2.082 1.344 3.09l.633.134c1.65 4.366 4.47 8.395 7.696 12.089.805.874.805 4.946.805 5.777 0 .136 0 .269.066.47h14.979v-.066l.069-5.442c.335-.402.67-.74 1.073-1.007.404-.335.807-.671 1.076-1.072 1.88-2.755 1.814-6.181 2.326-9.204v-4.568c0-.082-.12-.738-.783-1.075-.066-.401-.268-.805-.47-1.142-.47-.67-1.21-.425-2.013-.425h-.202c-.874 0-1.68-.314-1.912.425v-.94c0-.603-.508-1.21-.91-1.68-.538-.77-1.06-1.157-2.242-1.157-.848 0-1.686.387-2.192 1.158v-.537c0-.268-.066-.605-.133-.5-.268-1.717-1.41-2.59-2.688-2.59-.054-.003.485-.006.725-.006-1.705 0-2.5.457-2.94 1.527v-9.58c0-1.58-1.36-2.721-2.721-2.721Z"></path></g><defs><clipPath id="handWithPhone_svg__a"><path fill="#fff" transform="translate(26.5 18.625)" d="M0 0h35v53H0z"></path></clipPath></defs></svg>