<svg xmlns="http://www.w3.org/2000/svg" viewBox="0 0 293.91 121.13"><defs><style>.a{fill:#ff8000;}</style></defs><path class="a" d="M56.11,1.13a7.11,7.11,0,0,1,7.7,0,154.33,154.33,0,0,1,17,12.3s1.5,1,1.5-.7c0,0-.2-5.1.4-6.7a3,3,0,0,1,2.8-2s6.7.3,10.9.9a4,4,0,0,1,3.5,3.8s2.7,18.2,3.3,24.8c0,0,.5,3.3,5.4,9,0,0,9.8,13.7,11,16.4,0,0,2.3,4.8-2.6,5.4,0,0-9,.9-9.8,1.1a2.23,2.23,0,0,0-2,2.4v.1s-.5,31.7-2.8,46.9c0,0-.6,6-4,5.9,0,0-9.2-.3-11.3-.2,0,0-.9.1-.8-1.2,0,0,4.7-49.4,1.5-74.4,0,0-.1-3.2-2.6-3.9,0,0-2.2-.9-4.4,2.1,0,0-14.6,18.5-14.6,44.6,0,0-.3,7.9.9,9.9,0,0,.8,1.4,4.6,1.7l4.8.6s.9,0,.8,1.2c0,0-1.1,14.5-1.4,17.1a3.36,3.36,0,0,1-.4,1.7s-.2.5-1.7.4c0,0-21.3-.2-23.7,0,0,0-1,.1-1.2-.5s-1.5-18.7-1.4-21.3a1.54,1.54,0,0,1,.8-1.3,12.65,12.65,0,0,0,5.9-9.4s.3-1.5.1-8.3c0,0,.8-27.8,1-32.2,0,0,.2-1.5-1.8-1.8a1.84,1.84,0,0,0-2.2,1.39h0v.2s-1.4,18.3-1.1,25.6c0,0,.5,4.8-2.8,4.8,0,0-3.2.5-3.3-3.5,0,0,.2-17.8,1-26.6a2,2,0,0,0-1.8-1.9,1.92,1.92,0,0,0-2.2,1.59h0v.2s-1.4,17.1-1.1,26.1c0,0,.4,4.4-3.1,4.2,0,0-2.9.3-3.1-3.5,0,0,.8-24.4,1-26.3a2,2,0,0,0-1.64-2.2h-.26a1.9,1.9,0,0,0-2.1,1.6v.2s-1.3,29.2-1.1,37.8c0,0-.1,8.8,6.4,12.4,0,0,1,.6,1,1.4,0,0,.7,15.5,1.4,20.5,0,0,.2,1.2-.8,1.2l-16.4.4s-2.7.2-3.3-3.2c-.5-3.1-3.5-29-3-49.5a2.5,2.5,0,0,0-2-2.7s-8.4-.8-10.4-1.3A3.43,3.43,0,0,1,.1,60.28v-.05a3.3,3.3,0,0,1,.4-.9C.41,58.93,18.51,24.43,56.11,1.13Z"/><path class="a" d="M234.21,43.93a2,2,0,0,0-.3-1.5,1.75,1.75,0,0,0-1.4-.7h-14.4l-17.7,59.9-6.7-29.1,20.5-28,.3-.6.4-1.2a.71.71,0,0,0-.47-.88.45.45,0,0,0-.23,0h-14.6l-15.7,22.9,6.7-20.8a1.6,1.6,0,0,0-.3-1.5,1.86,1.86,0,0,0-1.4-.7h-14.5l-12.5,42.6c.3-7.3-5.4-13.1-8.7-16.7-2.7-3-4.3-5.1-4-7.4a6.68,6.68,0,0,1,6.4-5.8c3.6-.3,5.2.8,7.4,1.9a3.09,3.09,0,0,0,.9.2,1.83,1.83,0,0,0,.7-.1,1.56,1.56,0,0,0,1-1.1L169,44l-2.3-1.1c-.1-.1-.2-.1-.3-.2l-.1-.1h0a21.77,21.77,0,0,0-8.8-1.7c-12.7,0-24.2,9.1-26.1,20.3-1.3,7.8,3.7,13.3,7.3,17.4l.3.3c2.6,2.8,4.5,5,4.1,7.6-.6,3.6-4.1,5.6-7.4,5.9-3.7.3-6-.7-8.9-2a2.36,2.36,0,0,0-1.7-.3,1.76,1.76,0,0,0-1.2,1.2l-3.2,11h0l-.4,1.4a33.86,33.86,0,0,0,13.6,3.2c10.8,0,20.2-4.2,25.7-14.2l-3.3,11.2a1.65,1.65,0,0,0,.3,1.5,1.75,1.75,0,0,0,1.4.7h14.5l3.6-12.3,4.4-6.3,3.4,17.3a1.81,1.81,0,0,0,1.6,1.4H216L234.2,44Z"/><path class="a" d="M261.41,60.13a31.46,31.46,0,0,1-2.6,9.8c-1.8,4-3.5,7-8.2,7.5h-4.1l6.4-21.8h5.4a2.6,2.6,0,0,1,2,.8A4.7,4.7,0,0,1,261.41,60.13Zm11.5-13.6a14.68,14.68,0,0,0-11.1-4.8h-24l-1,3.4a1.4,1.4,0,0,0,.1.9l.7,1.1a4.32,4.32,0,0,1,.5,3.5l-15.6,53a1.61,1.61,0,0,0,.2,1.5,1.77,1.77,0,0,0,1.3.7h14l4.4-14.7h6.3c15.2.2,22.9-10.5,26.3-22.1,1.4-4.7,2.1-8.2,2-10.4.1-5-1.2-8.8-4.1-12.1Z"/><polygon class="a" points="285.11 46.42 286.01 42.13 286.61 42.13 285.71 46.42 285.11 46.42"/><polygon class="a" points="290.31 43.23 289.41 43.23 289.41 45.73 288.81 45.73 288.81 43.23 287.91 43.23 287.91 42.63 290.31 42.63 290.31 43.23"/><polygon class="a" points="293.91 42.63 293.91 45.73 293.41 45.73 293.41 43.73 292.61 45.42 292.11 45.42 291.41 43.73 291.41 45.73 290.81 45.73 290.81 42.63 291.41 42.63 292.41 44.63 293.31 42.63 293.91 42.63"/><polygon class="a" points="280.61 42.63 280.61 45.73 280.01 45.73 280.01 43.73 279.21 45.42 278.81 45.42 278.01 43.73 278.01 45.73 277.51 45.73 277.51 42.63 278.11 42.63 279.01 44.63 279.91 42.63 280.61 42.63"/><path class="a" d="M282.51,45.83a1.17,1.17,0,0,1-1.3-1,1.41,1.41,0,0,1,0-.29v-.6a1.15,1.15,0,0,1,1-1.3.76.76,0,0,1,.3,0,1.1,1.1,0,0,1,1.2.8l-.5.2a.64.64,0,0,0-.7-.5.62.62,0,0,0-.7.53v.87a.64.64,0,0,0,.55.7h.15a.66.66,0,0,0,.7-.6l.5.2c-.2.7-.5,1-1.2,1Z"/></svg>