<svg width="122" height="50" fill="none" xmlns="http://www.w3.org/2000/svg"><g clip-path="url(#skip-logo_svg__a)" fill="#fff"><path d="M23.218.467a2.948 2.948 0 0 1 3.187 0 63.852 63.852 0 0 1 7.034 5.077s.621.413.621-.29c0 0-.083-2.104.166-2.765a1.239 1.239 0 0 1 1.158-.825s2.773.123 4.51.371a1.657 1.657 0 0 1 1.45 1.569s1.116 7.512 1.365 10.237c0 0 .207 1.362 2.234 3.715 0 0 4.056 5.655 4.552 6.77 0 0 .952 1.98-1.076 2.228 0 0-3.724.372-4.055.454a.923.923 0 0 0-.828.99v.042s-.207 13.085-1.158 19.36c0 0-.249 2.476-1.656 2.435 0 0-3.807-.124-4.676-.083 0 0-.372.042-.33-.495 0 0 1.944-20.391.62-30.71 0 0-.041-1.322-1.076-1.61 0 0-.91-.372-1.82.866 0 0-6.042 7.637-6.042 18.41 0 0-.124 3.261.372 4.087 0 0 .331.578 1.904.702l1.986.247s.372 0 .331.495c0 0-.455 5.986-.58 7.059.009.244-.049.486-.165.702 0 0-.082.206-.703.165 0 0-8.814-.083-9.807 0 0 0-.414.041-.497-.206-.083-.248-.62-7.72-.58-8.793a.634.634 0 0 1 .332-.536 5.227 5.227 0 0 0 2.441-3.88s.124-.62.042-3.427c0 0 .33-11.475.413-13.291 0 0 .083-.62-.745-.743a.763.763 0 0 0-.91.574v.082s-.58 7.554-.455 10.567c0 0 .207 1.982-1.159 1.982 0 0-1.324.206-1.365-1.445 0 0 .082-7.347.414-10.98a.825.825 0 0 0-.745-.784.796.796 0 0 0-.91.656v.083s-.58 7.058-.456 10.773c0 0 .166 1.816-1.283 1.734 0 0-1.2.124-1.282-1.445 0 0 .33-10.072.413-10.856a.824.824 0 0 0-.678-.908h-.108a.787.787 0 0 0-.869.66v.083s-.538 12.053-.455 15.603c0 0-.041 3.633 2.648 5.118 0 0 .414.248.414.578 0 0 .29 6.398.58 8.462 0 0 .082.496-.332.496l-6.786.165s-1.117.082-1.366-1.321c-.206-1.28-1.448-11.97-1.241-20.433a1.03 1.03 0 0 0-.828-1.114s-3.476-.33-4.303-.537A1.419 1.419 0 0 1 .04 24.882v-.02a1.36 1.36 0 0 1 .166-.372C.169 24.325 7.659 10.084 23.218.467ZM96.918 18.133a.824.824 0 0 0-.124-.619.724.724 0 0 0-.58-.289h-5.958L82.93 41.951 80.16 29.939l8.483-11.558.124-.248.165-.495a.292.292 0 0 0-.194-.363.187.187 0 0 0-.095 0H82.6l-6.497 9.452 2.773-8.585a.658.658 0 0 0-.124-.62.77.77 0 0 0-.58-.289h-6L67 34.818c.124-3.013-2.235-5.408-3.6-6.894-1.118-1.238-1.78-2.105-1.656-3.054a2.768 2.768 0 0 1 2.648-2.394c1.49-.124 2.153.33 3.063.784.12.046.245.074.372.083a.76.76 0 0 0 .29-.042.646.646 0 0 0 .414-.454l1.403-4.685-.952-.454c-.041-.041-.083-.041-.124-.082l-.042-.042a9.028 9.028 0 0 0-3.641-.701c-5.255 0-10.014 3.756-10.8 8.379-.538 3.22 1.53 5.49 3.02 7.182l.124.124c1.076 1.156 1.863 2.064 1.697 3.137-.248 1.486-1.697 2.312-3.062 2.436-1.531.124-2.483-.29-3.683-.826a.979.979 0 0 0-.703-.124.73.73 0 0 0-.497.496l-1.324 4.54-.166.578a14.04 14.04 0 0 0 5.628 1.321c4.47 0 8.359-1.734 10.635-5.861l-1.366 4.623a.68.68 0 0 0 .124.619.723.723 0 0 0 .58.289h6l1.49-5.077 1.82-2.6 1.407 7.14a.746.746 0 0 0 .662.578h12.621l7.532-25.675.004-.029ZM108.172 24.82a12.948 12.948 0 0 1-1.076 4.046c-.745 1.65-1.448 2.889-3.393 3.095h-1.697l2.649-8.998h2.234a1.08 1.08 0 0 1 .828.33 1.932 1.932 0 0 1 .455 1.527Zm4.759-5.614a6.08 6.08 0 0 0-4.593-1.98h-9.932l-.413 1.403a.577.577 0 0 0 .04.371l.29.454a1.78 1.78 0 0 1 .208 1.445l-6.456 21.877a.664.664 0 0 0 .32.822c.093.05.196.08.3.086h5.794l1.821-6.067h2.607c6.29.082 9.476-4.335 10.883-9.123.579-1.94.869-3.385.828-4.293.041-2.064-.497-3.632-1.697-4.995ZM116.904 18.918a.487.487 0 0 1-.538-.413.599.599 0 0 1 0-.12v-.248a.47.47 0 0 1 .236-.477.469.469 0 0 1 .178-.06.316.316 0 0 1 .124 0 .455.455 0 0 1 .496.331l-.207.083a.261.261 0 0 0-.289-.207.254.254 0 0 0-.191.05.268.268 0 0 0-.099.17v.358a.266.266 0 0 0 .228.29h.062a.272.272 0 0 0 .289-.248l.207.082c-.082.289-.207.413-.496.413v-.004ZM116.119 17.597v1.28h-.249v-.826l-.331.697h-.165l-.331-.697v.825h-.207v-1.28h.248l.373.826.372-.825h.29ZM117.98 19.161l.373-1.77h.248l-.372 1.77h-.249ZM120.132 17.844h-.373v1.032h-.248v-1.032h-.372v-.247h.993v.247ZM121.621 17.597v1.28h-.207v-.826l-.331.697h-.207l-.29-.697v.825h-.248v-1.28h.248l.414.826.372-.825h.249Z"></path></g><defs><clipPath id="skip-logo_svg__a"><path fill="#fff" d="M0 0h121.622v50H0z"></path></clipPath></defs></svg>